<?xml version="1.0" encoding="utf-8"?>
<!-- Generator: Adobe Illustrator 26.0.0, SVG Export Plug-In . SVG Version: 6.00 Build 0)  -->
<svg version="1.1" id="Capa_1" xmlns="http://www.w3.org/2000/svg" xmlns:xlink="http://www.w3.org/1999/xlink" x="0px" y="0px"
	 viewBox="0 0 200 200" style="enable-background:new 0 0 200 200;" xml:space="preserve">
<style type="text/css">
	.st0{fill:none;stroke:#FFFFFF;stroke-width:8;}
	.st1{fill:#DD2B26;}
</style>
<path class="st0" d="M181.5,96.7C171,74.6,154.8,56.5,135.8,41c-2.8-2.3-4.7-2.1-7.2,0.1c-4.5,4-8.1,7.4-12.3,11.1
	c-5.3-6-13.3-10-23.3-11.1c-10-1-18.3,2.1-25,10.1c0,0-1.4,1.6-2.1,2.3c-0.1,0.1-0.3,0.1-0.4,0c-0.4-0.5-0.7-0.8-2.1-2.4
	c-6.9-7.9-15-11.1-24.8-10C12.8,43.8,0.6,66,12.3,90.6c11.6,24.3,28.3,45.1,48.4,63c2.5,2.3,1.8,1.7,3,2.4c1.5,0.9,3.3,0.8,4.7-0.2
	c0.5-0.4,1.1-0.9,2.4-2.1c7.2-6.4,14-13.2,20.2-20.4c0.7,0.5,1.2,0.9,1.6,1.2c8.3,5.5,25,7.5,34.7-6.2c1,14.4-3.6,25-17.7,32.4
	c16.2,0,29.1,0,42.4,0c-14.5-16.4-16.3-20.4-14.2-31.8c5.6,8.3,13.1,11.5,22.4,9.7C181.9,134.5,191.3,117.3,181.5,96.7z"/>
<path class="st1" d="M63.7,156c1.5,0.9,3.3,0.8,4.7-0.2c0.5-0.4,1.1-0.9,2.4-2.1c20.2-18,36.8-38.8,48.4-63.1
	c11.7-24.7-0.5-46.8-26.2-49.5c-10-1-18.3,2.1-25,10.1c0,0-1.4,1.6-2.1,2.3c-0.1,0.1-0.3,0.1-0.4,0c-0.4-0.5-0.7-0.8-2.1-2.4
	c-6.9-7.9-15-11.1-24.8-10C12.8,43.8,0.6,66,12.3,90.6c11.6,24.3,28.3,45.1,48.4,63C63.2,155.9,62.5,155.3,63.7,156z"/>
<path d="M114.3,53.9c5.1-4.4,9.1-8.2,14.3-12.8c2.5-2.2,4.4-2.4,7.2-0.1c19,15.5,35.2,33.6,45.7,55.7c9.8,20.6,0.4,37.8-21.3,41.9
	c-9.3,1.8-16.8-1.4-22.4-9.7c-2.1,11.4-0.3,15.4,14.2,31.8c-13.3,0-26.2,0-42.4,0c14.1-7.4,18.7-18,17.7-32.4
	c-9.7,13.7-26.4,11.7-34.7,6.2c-2.4-1.8-12.4-9-13.8-19.2c-1.4-9.9,1.9-17.1,6.9-25.3c8.6-13.9,14.7-20.9,23.2-30.4
	C111.1,56.9,110.9,57.2,114.3,53.9z"/>
</svg>
